<svg width="800" height="800" viewBox="0 0 800 800" fill="none" xmlns="http://www.w3.org/2000/svg">
<path d="M561.228 614.4C492.81 695.842 399.541 723.164 294.728 720.82C244.803 719.704 196.449 709.743 151.086 687.878C107.083 666.746 70.7653 632.423 47.1891 589.681C6.68513 518.338 -7.71584 442.303 7.26704 361.302C9.95927 346.754 14.1799 334.761 29.437 325.055C74.8805 296.153 125.338 283.13 176.925 275.25C266.271 261.602 356.475 257.395 446.5 267.398C491.649 272.973 536.469 280.971 580.759 291.354C615.913 299.153 617.381 302.892 623.18 336.45C636.056 331.597 648.596 325.303 661.86 322.163C702.818 312.464 744.132 329.651 769.279 366.148C811.781 427.846 814.762 539.585 721.519 603.353C686.028 627.623 647.45 642.589 603.654 632.194C589.58 628.861 576.596 620.999 561.228 614.4ZM38.1459 386.128C34.6963 455.907 53.7498 524.949 92.4988 583.082C112.043 613.941 140.668 637.987 174.437 651.913C270.959 690.899 367.482 691.964 462.309 646.115C498.466 629.131 527.939 600.596 546.084 565.009C577.259 504.215 584.02 439.012 581.722 371.198C567.75 376.245 555.149 382.903 541.794 385.245C499.653 392.602 457.393 402.301 414.902 403.943C289.276 408.756 163.511 410.1 38.1459 386.128ZM61.5801 348.764L62.3893 354.195C75.9072 356.479 89.362 360.262 102.947 360.8C195.757 364.479 288.561 368.961 381.425 370.104C430.805 370.71 480.446 366.352 528.316 351.877C537.839 348.95 546.976 344.872 555.511 339.734C557.386 338.324 558.899 336.484 559.918 334.37C560.943 332.256 561.442 329.928 561.381 327.58C560.56 325.416 559.256 323.466 557.575 321.88C555.888 320.294 553.86 319.113 551.654 318.427C537.269 314.34 522.696 309.781 507.923 308.48C463.085 304.524 418.163 301.013 373.197 299.14C284.832 295.461 197.54 302.949 112.669 329.487C95.3151 334.908 78.5895 342.286 61.5801 348.764ZM621.243 386.93C627.959 384.971 631.511 383.783 635.134 382.897C671.781 373.947 707.71 390.967 720.54 423.916C728.617 444.889 729.901 467.87 724.219 489.613C709.121 550.364 649.085 586.268 585.549 572.909L579.924 585.976C600.076 588.586 619.011 594.797 636.938 592.642C686.879 586.624 722.553 557.501 741.126 511.74C759.134 467.406 754.023 422.729 726.196 383.054C702.033 348.62 644.464 349.751 621.243 386.93ZM602.787 540.418C659.45 547.882 707.154 489.459 688.097 434.2C680.25 411.431 644.413 401.044 626.563 416.735C623.648 419.91 621.804 423.918 621.289 428.197C614.986 465.229 609.019 502.318 602.787 540.418Z" fill="#E8C88C"/>
<path d="M364.635 196.893C363.93 216.96 359.124 232.501 346.385 243.487C343.412 245.633 340.045 247.171 336.476 248.013C332.908 248.856 329.209 248.986 325.59 248.397C315.918 246.594 315.296 236.394 317.921 229.291C327.138 204.328 322.155 181.061 315.46 156.296C308.881 131.965 317.061 107.992 330.533 86.5349C335.55 78.5618 342.68 74.251 351.603 78.7458C360.157 83.0467 360.298 91.5382 356.803 99.1066C345.318 124.072 346.318 148.179 358.542 172.75C362.632 180.941 363.204 190.873 364.635 196.893Z" fill="#E8C88C"/>
<path d="M156.684 249.462C156.971 247.104 157.664 244.813 158.731 242.69C170.392 225.497 165.523 209.246 157.356 192.374C140.764 158.087 145.751 126.703 171.366 98.6602C174.339 95.4028 177.536 90.9348 181.298 90.1188C187.747 88.7275 196.349 87.286 201.104 90.3829C208.328 95.0651 204.609 102.533 200.215 109.262C193.96 119.05 188.351 129.235 183.422 139.753C176.884 153.361 180.489 166.562 185.429 180.06C191.065 193.857 195.12 208.248 197.515 222.958C199.74 241.081 189.242 257.312 175.707 262.603C164.182 267.101 156.196 262.108 156.684 249.462Z" fill="#E8C88C"/>
<path d="M414.153 186.037C410.882 173.783 408.317 161.857 404.498 150.349C396.776 127.082 403.354 106.537 415.534 86.9724C420.705 78.6616 428.437 73.4343 438.039 78.3138C448.142 83.4508 444.671 92.4741 441.049 100.17C437.179 107.882 435.286 116.435 435.54 125.06C435.794 133.685 438.187 142.112 442.503 149.583C455.938 175.288 456.644 201.371 436.303 224.076C429.715 231.433 419.507 236.497 409.992 239.975C402.464 242.728 396.893 238.637 400.15 228.902C404.886 214.785 409.407 200.601 414.153 186.037Z" fill="#E8C88C"/>
<path d="M273.371 91.1861C271.941 95.8951 270.277 100.529 268.384 105.072C259.391 123.68 261.484 141.416 271.277 159.124C280.815 176.375 287.802 194.99 284.765 214.782C282.665 225.999 278.025 236.588 271.2 245.734C268.257 249.821 257.702 251.613 252.331 249.667C248.592 248.329 245.014 238.206 246.157 233.079C251.896 207.387 246.973 184.311 235.9 160.7C223.459 134.168 229.505 108.379 248.432 86.4369C251.883 82.4236 259.766 80.7885 265.544 80.9022C268.287 80.9557 270.896 87.7246 273.371 91.1861Z" fill="#E8C88C"/>
<path d="M444.961 434.445V433.953" stroke="#E8C88C" stroke-width="2" stroke-linecap="round"/>
<path d="M212.82 536.109C215.97 535.297 228.395 533.215 249.096 532.717C256.068 532.549 261.037 536.417 265.527 541.238C279.019 555.724 280.133 589.739 278.683 601.424C278.068 606.374 272.752 609.842 267.01 612.501C252.38 619.275 233.997 606.71 216.279 594.683C209.962 590.396 207.518 584.041 206.102 577.794C205.379 574.607 205.905 571.167 206.931 568.502C207.958 565.836 209.791 563.993 213.174 562.948C221.155 560.483 229.48 563.024 234.909 566.711C240.258 570.345 241.204 577.283 241.833 582.743C242.464 588.222 240.301 594.133 236.765 599.646C233.763 604.326 229.405 607.044 224.913 608.87C204.081 617.335 180.759 574.857 178.981 569.456C178.193 567.066 179.432 564.972 182.404 562.697C189.867 556.981 199.53 554.856 207.395 554.576C211.513 554.429 215.88 555.698 219.23 557.645C222.579 559.593 224.776 562.545 226.021 565.978C231.519 581.141 221.825 601.572 210.695 616.312C207.121 621.046 202.256 622.108 198.033 622.574C184.622 624.054 177.961 600.152 172.848 592.899C171.53 591.028 170.309 589.045 170.272 586.898C170.235 584.752 171.462 582.473 173.293 581.465C175.124 580.458 177.522 580.79 179.511 581.899C183.526 584.136 185.382 589.509 186.625 595.388C188.026 602.023 186.206 608.548 183.964 613.705C182.834 616.302 180.623 618.308 178.524 619.506C159.48 630.377 128.705 590.977 127.631 585.718C126.551 580.43 128.57 575.484 131.302 571.695C136.379 564.654 147.524 564.346 156.792 565.417C168.039 566.717 170.261 586.193 170.463 599.333C170.539 604.311 166.737 607.901 162.623 610.503C160.393 611.913 156.722 611.024 154.134 610.254C140.12 606.085 126.262 585.556 119.946 573.584C116.922 567.853 115.247 561.772 113.512 556.697C112.73 554.41 113.389 552.373 114.918 550.29C118.458 545.466 123.917 543.104 127.927 542.661C132.205 542.188 135.023 547.598 136.983 552.318C139.484 558.34 139.195 564.342 138.205 567.644C137.74 569.195 135.235 569.404 133.122 568.755C122.213 565.406 120.996 547.224 117.562 538.478C114.392 530.404 111.423 520.942 105.138 514.537C101.941 511.279 96.9457 509.404 93.5017 508.969C83.4052 507.692 96.637 530.45 104.572 545.411C106.386 548.832 107.729 550.927 107.751 551.244C108.167 557.31 96.7933 537.025 84.654 524.849C77.148 517.321 74.3013 506.057 71.8417 496.024C69.5807 486.8 73.9848 475.829 73.7393 465.753C73.4732 454.832 60.2759 446.107 55.0254 436.607C52.5257 432.084 52.0034 427.257 52.5784 423.415C53.2866 418.683 59.5641 416.298 63.705 414.146C73.6502 408.977 81.3295 417.423 86.8334 418.334C89.6458 418.8 92.4766 419.395 88.1096 417.355C57.9713 403.278 48.6373 404.3 44.0025 403.577C39.182 402.825 55.7319 405.712 91.0175 410.638C139.209 417.365 161.445 415.05 176.682 417.535C187.96 419.375 220.03 420.657 264.249 420.84C309.35 421.027 322.009 418.661 342.045 417.821C372.584 416.541 404.696 416.296 424.726 415.374C450.976 414.166 477.307 411.104 488.127 409.214C503.452 406.537 518.794 402.896 528.669 400.243C537.314 397.92 547.889 393.314 558.172 390.881C566.321 388.953 572.424 386.098 575.888 385.666C586.635 384.327 561.808 407.272 556.892 419.214C552.15 430.733 552.301 443.148 550.395 453.303C548.242 464.78 534.135 491.763 523.57 510.091C518.614 518.69 516.035 527.271 512.418 533.787C506.373 544.678 529.047 511.109 529.89 500.092C530.262 495.226 533.142 491.164 536.189 487.633C538.916 484.474 543.099 483.261 546.149 483.898C558.472 486.47 544.153 507.843 538.348 520.264C526.136 546.398 522.314 554.977 516.241 561.911C506.693 572.812 485.502 582.855 472.528 593.163C455.425 606.752 442.933 613.365 433.551 617.419C414.349 625.715 386.718 626.355 356.626 633.992C340.291 638.138 323.761 642.118 312.102 644.554C301.634 646.74 289.443 647.541 276.771 648.076C254.464 649.017 244.883 646.737 231.862 642.79C219.882 639.158 211.867 639.18 208.676 638.997C204.324 638.748 245.009 643.348 293.191 644.77C323.043 645.651 349.894 643.96 376.637 643.455C397.233 643.065 431.333 630.517 464.934 618.455C481.377 612.552 495.52 604.06 502.725 597.249C504.382 595.682 506.296 594.655 506.108 595.27C502.691 606.398 481.633 613.096 471.704 619.802C460.966 627.055 436.944 634.417 408.803 642.598C385.771 649.293 370.941 657.775 360.09 661.75C346.055 666.89 322.309 665.187 303.907 659.033C287.754 653.63 279.786 644.63 268.207 631.991C265.663 629.215 265.097 626.735 265.743 624.49C267.213 619.384 287.092 612.924 322.268 603.276C362.264 592.305 387.402 587.722 394.602 585.146C413.404 578.42 426.686 573.662 437.614 568.119C449.015 562.337 460.873 554.9 473.6 546.985C484.809 540.015 494.856 526.267 502.435 514.557C509.553 503.56 514.127 490.711 516.445 479.371C517.09 476.214 516.672 472.258 515.726 468.337C514.78 464.416 512.887 460.59 507.732 461.814C492.639 465.395 472.608 487.769 451.025 508.018C427.981 529.639 413.487 544.422 399.361 547.831C367.72 555.467 345.95 551.744 314.136 552.178C307.393 552.27 305.387 552.198 304.354 551.106C303.32 550.014 303.32 547.818 304.074 545.28C308.448 530.561 332.7 520.262 385.838 505.99C421.53 496.403 455.003 495.011 462.615 492.427C465.817 491.339 466.986 489.038 467.959 486.547C470.046 481.203 469.428 475.614 466.908 470.757C460.558 458.525 446.87 455.002 431.488 448.741C420.329 444.198 408.405 452.318 387.537 459.426C372.262 464.629 358.26 466.384 336.639 466.8C320.181 467.116 292.578 465.46 254.435 463.823C216.291 462.186 168.441 460.059 142.23 459.232C112.91 458.308 107.834 460.227 104.698 462.545C101.095 465.209 102.609 471.022 104.096 475.088C104.889 477.255 106.23 479.45 107.703 481.23C110.493 484.604 130.318 488.434 164.042 492.938C193.576 496.882 216.963 494.158 233.119 492.424C270.639 488.396 316.813 489.594 325.915 491.24C327.243 491.48 325.629 493.972 322.251 495.863C313.792 500.597 293.374 503.748 262.112 507.002C204.317 513.018 185.501 514.78 171.284 518.803C166.332 521.326 160.373 527.183 155.467 532.52C153.923 533.58 154.3 531.294 154.688 528.937" stroke="#E8C88C" stroke-width="63" stroke-linecap="round"/>
<path d="M584.57 589.398C584.408 589.398 584.245 589.398 583.497 588.639C582.748 587.88 581.418 586.361 582.485 585.029C595.057 569.338 629.8 580.028 641.26 579.002C646.563 578.527 650.978 577.844 652.992 577.539C659.689 576.527 624.7 581.574 606.647 583.302C601.227 583.821 592.479 583.894 594.044 584.178C631.839 583.937 659.26 580.29 666.88 576.937C666.779 576.84 663.629 578.031 660.383 579.742" stroke="#E8C88C" stroke-width="9" stroke-linecap="round"/>
<path d="M624.664 585.922C646.48 577.986 693.635 557.482 698.507 547.013C703.426 536.444 712.675 528.939 718.964 525.67C729.286 520.305 709.822 545.948 703.053 554.166C694.3 564.792 689.479 572.865 682.35 578.296C666.519 590.357 629.103 582.228 617.166 581.321C603.468 580.281 593.301 578.022 589.799 578C578.385 577.928 615.134 596.03 629.643 599.375C643.55 602.581 658.519 588.592 676.663 581.565C688.158 577.114 695.722 567.154 715.764 543.593C729.778 527.118 731.323 514.281 733.302 493.648C734.518 480.97 736.895 467.689 738.775 457.15C740.677 446.486 743.416 438.709 743.905 433.475C744.144 430.908 743.855 428.486 744.559 433.616C749.372 468.691 749.713 483.919 750.656 488.124C757.217 517.374 747.91 447.06 743.017 435.134C737.663 422.084 732.273 412.104 729.416 403.148C728.125 399.102 724.19 394.474 719.192 389.798C716.96 387.709 714.424 387.303 713.073 387.963C705.75 391.54 714.608 411.295 718.642 422.548C722.665 433.772 733.446 435.999 737.859 436.254C752.431 437.096 718.784 401.408 711.513 389.218C707.701 382.827 709.157 375.666 706.081 372.363C702.8 368.839 698.226 367.331 694.098 366.601C681.355 364.347 664.725 373.507 648.77 378.448C637.301 382 629.355 382.273 628.081 382.665C658.875 380.391 708.405 379.999 712.342 381.813C714.397 382.973 716.568 384.618 720.258 388.25" stroke="#E8C88C" stroke-width="27" stroke-linecap="round"/>
</svg>
